<svg xmlns="http://www.w3.org/2000/svg" xmlns:xlink="http://www.w3.org/1999/xlink" width="5000" zoomAndPan="magnify" viewBox="0 0 3750 3749.999967" height="5000" preserveAspectRatio="xMidYMid meet" version="1.0"><defs><g/><clipPath id="7a0d6c5d8d"><path d="M 1251 557 L 3161 557 L 3161 3438.640625 L 1251 3438.640625 Z M 1251 557 " clip-rule="nonzero"/></clipPath><clipPath id="fefb61518e"><rect x="0" width="1910" y="0" height="2882"/></clipPath><clipPath id="c0c10970c2"><path d="M 0.800781 0.398438 L 1910 0.398438 L 1910 2882 L 0.800781 2882 Z M 0.800781 0.398438 " clip-rule="nonzero"/></clipPath><clipPath id="2fe4fba66c"><rect x="0" width="1910" y="0" height="2882"/></clipPath><clipPath id="62dade89b1"><rect x="0" width="3457" y="0" height="3439"/></clipPath></defs><g transform="matrix(1, 0, 0, 1, 130, 248)"><g clip-path="url(#62dade89b1)"><g clip-path="url(#7a0d6c5d8d)"><g transform="matrix(1, 0, 0, 1, 1251, 557)"><g clip-path="url(#fefb61518e)"><g fill="#741422" fill-opacity="1"><g transform="translate(1909.821266, 607.306353)"><g><path d="M -1768.296875 533.828125 C -1800.640625 566.179688 -1826.925781 599.546875 -1847.15625 633.921875 C -1794.582031 484.285156 -1706.617188 356.894531 -1583.265625 251.75 C -1490.265625 172.882812 -1387.144531 111.710938 -1273.90625 68.234375 C -1160.664062 24.765625 -1043.382812 2.019531 -922.0625 0 C -802.757812 0 -691.039062 22.238281 -586.90625 66.71875 C -482.769531 111.207031 -391.269531 172.882812 -312.40625 251.75 C -233.550781 330.613281 -171.878906 422.113281 -127.390625 526.25 C -82.898438 630.382812 -60.65625 742.101562 -60.65625 861.40625 C -60.65625 980.71875 -82.898438 1092.945312 -127.390625 1198.09375 C -171.878906 1303.238281 -233.550781 1395.242188 -312.40625 1474.109375 C -391.269531 1552.972656 -482.769531 1614.644531 -586.90625 1659.125 C -691.039062 1703.613281 -802.757812 1725.859375 -922.0625 1725.859375 L -1000.921875 1725.859375 C -1134.378906 1725.859375 -1259.238281 1697.039062 -1375.5 1639.40625 C -1491.769531 1581.78125 -1590.851562 1502.921875 -1672.75 1402.828125 C -1754.644531 1302.734375 -1810.753906 1186.96875 -1841.078125 1055.53125 L -724.90625 1055.53125 L -724.90625 997.90625 C -724.90625 892.757812 -748.15625 795.191406 -794.65625 705.203125 C -841.164062 615.222656 -905.367188 539.898438 -987.265625 479.234375 C -1069.160156 418.566406 -1161.671875 381.160156 -1264.796875 367.015625 C -1357.816406 352.859375 -1448.304688 360.941406 -1536.265625 391.265625 C -1624.222656 421.597656 -1701.566406 469.117188 -1768.296875 533.828125 Z M -724.90625 1489.265625 L -724.90625 1067.671875 L -1176.84375 1067.671875 L -1176.84375 1489.265625 C -1176.84375 1551.953125 -1155.101562 1605.03125 -1111.625 1648.5 C -1068.15625 1691.976562 -1015.078125 1713.71875 -952.390625 1713.71875 C -889.703125 1713.71875 -836.113281 1691.976562 -791.625 1648.5 C -747.144531 1605.03125 -724.90625 1551.953125 -724.90625 1489.265625 Z M -724.90625 1489.265625 "/></g></g></g></g></g></g><g clip-path="url(#c0c10970c2)"><g transform="matrix(1, 0, 0, 1, -0.000000000000028422, 0.000000000000227374)"><g clip-path="url(#2fe4fba66c)"><g fill="#741422" fill-opacity="1"><g transform="translate(0.926045, 2274.783928)"><g><path d="M 1768.296875 -533.828125 C 1800.640625 -566.179688 1826.925781 -599.546875 1847.15625 -633.921875 C 1794.582031 -484.285156 1706.617188 -356.894531 1583.265625 -251.75 C 1490.265625 -172.882812 1387.144531 -111.710938 1273.90625 -68.234375 C 1160.664062 -24.765625 1043.382812 -2.019531 922.0625 0 C 802.757812 0 691.039062 -22.238281 586.90625 -66.71875 C 482.769531 -111.207031 391.269531 -172.882812 312.40625 -251.75 C 233.550781 -330.613281 171.878906 -422.113281 127.390625 -526.25 C 82.898438 -630.382812 60.65625 -742.101562 60.65625 -861.40625 C 60.65625 -980.71875 82.898438 -1092.945312 127.390625 -1198.09375 C 171.878906 -1303.238281 233.550781 -1395.242188 312.40625 -1474.109375 C 391.269531 -1552.972656 482.769531 -1614.644531 586.90625 -1659.125 C 691.039062 -1703.613281 802.757812 -1725.859375 922.0625 -1725.859375 L 1000.921875 -1725.859375 C 1134.378906 -1725.859375 1259.238281 -1697.039062 1375.5 -1639.40625 C 1491.769531 -1581.78125 1590.851562 -1502.921875 1672.75 -1402.828125 C 1754.644531 -1302.734375 1810.753906 -1186.96875 1841.078125 -1055.53125 L 724.90625 -1055.53125 L 724.90625 -997.90625 C 724.90625 -892.757812 748.15625 -795.191406 794.65625 -705.203125 C 841.164062 -615.222656 905.367188 -539.898438 987.265625 -479.234375 C 1069.160156 -418.566406 1161.671875 -381.160156 1264.796875 -367.015625 C 1357.816406 -352.859375 1448.304688 -360.941406 1536.265625 -391.265625 C 1624.222656 -421.597656 1701.566406 -469.117188 1768.296875 -533.828125 Z M 724.90625 -1489.265625 L 724.90625 -1067.671875 L 1176.84375 -1067.671875 L 1176.84375 -1489.265625 C 1176.84375 -1551.953125 1155.101562 -1605.03125 1111.625 -1648.5 C 1068.15625 -1691.976562 1015.078125 -1713.71875 952.390625 -1713.71875 C 889.703125 -1713.71875 836.113281 -1691.976562 791.625 -1648.5 C 747.144531 -1605.03125 724.90625 -1551.953125 724.90625 -1489.265625 Z M 724.90625 -1489.265625 "/></g></g></g></g></g></g><g fill="#741422" fill-opacity="1"><g transform="translate(2452.95481, 1109.9672)"><g><path d="M 146.65625 31.96875 C 145.945312 34.21875 145.242188 36.066406 144.546875 37.515625 C 143.847656 38.972656 143.070312 40.160156 142.21875 41.078125 C 141.375 41.992188 140.507812 42.585938 139.625 42.859375 C 138.738281 43.140625 137.785156 43.117188 136.765625 42.796875 L 39.953125 12.5 C 37.359375 11.6875 35.175781 10.039062 33.40625 7.5625 C 31.632812 5.09375 31.4375 1.65625 32.8125 -2.75 L 96.265625 -205.515625 C 96.554688 -206.421875 97.03125 -207.140625 97.6875 -207.671875 C 98.351562 -208.210938 99.3125 -208.503906 100.5625 -208.546875 C 101.8125 -208.585938 103.441406 -208.445312 105.453125 -208.125 C 107.460938 -207.8125 109.820312 -207.226562 112.53125 -206.375 C 115.34375 -205.5 117.632812 -204.628906 119.40625 -203.765625 C 121.1875 -202.898438 122.578125 -202.09375 123.578125 -201.34375 C 124.585938 -200.59375 125.210938 -199.804688 125.453125 -198.984375 C 125.703125 -198.171875 125.679688 -197.3125 125.390625 -196.40625 L 66.125 -7 L 144.65625 17.578125 C 145.675781 17.898438 146.472656 18.429688 147.046875 19.171875 C 147.617188 19.910156 148.007812 20.835938 148.21875 21.953125 C 148.425781 23.066406 148.394531 24.445312 148.125 26.09375 C 147.851562 27.75 147.363281 29.707031 146.65625 31.96875 Z M 146.65625 31.96875 "/></g></g></g><g fill="#741422" fill-opacity="1"><g transform="translate(2588.407662, 1153.826636)"><g><path d="M 53.328125 18.875 C 52.941406 19.738281 52.398438 20.367188 51.703125 20.765625 C 51.015625 21.171875 50.085938 21.375 48.921875 21.375 C 47.765625 21.375 46.269531 21.09375 44.4375 20.53125 C 42.601562 19.976562 40.34375 19.101562 37.65625 17.90625 C 35.050781 16.75 32.9375 15.679688 31.3125 14.703125 C 29.6875 13.722656 28.453125 12.785156 27.609375 11.890625 C 26.773438 11.003906 26.300781 10.179688 26.1875 9.421875 C 26.070312 8.660156 26.207031 7.847656 26.59375 6.984375 L 91.484375 -138.859375 C 91.816406 -139.617188 92.3125 -140.238281 92.96875 -140.71875 C 93.632812 -141.195312 94.578125 -141.421875 95.796875 -141.390625 C 97.023438 -141.367188 98.550781 -141.082031 100.375 -140.53125 C 102.195312 -139.988281 104.410156 -139.140625 107.015625 -137.984375 C 109.703125 -136.785156 111.863281 -135.691406 113.5 -134.703125 C 115.132812 -133.710938 116.335938 -132.785156 117.109375 -131.921875 C 117.890625 -131.054688 118.351562 -130.203125 118.5 -129.359375 C 118.644531 -128.523438 118.550781 -127.726562 118.21875 -126.96875 Z M 143.203125 -174.859375 C 140.410156 -168.585938 137.320312 -164.847656 133.9375 -163.640625 C 130.550781 -162.429688 125.671875 -163.25 119.296875 -166.09375 C 113.035156 -168.875 109.238281 -171.882812 107.90625 -175.125 C 106.570312 -178.375 107.273438 -183.082031 110.015625 -189.25 C 112.796875 -195.507812 115.878906 -199.242188 119.265625 -200.453125 C 122.648438 -201.671875 127.53125 -200.863281 133.90625 -198.03125 C 140.164062 -195.25 143.960938 -192.226562 145.296875 -188.96875 C 146.640625 -185.71875 145.941406 -181.015625 143.203125 -174.859375 Z M 143.203125 -174.859375 "/></g></g></g><g fill="#741422" fill-opacity="1"><g transform="translate(2655.776143, 1179.003755)"><g><path d="M 142.4375 82.59375 C 141.9375 83.40625 141.3125 83.960938 140.5625 84.265625 C 139.820312 84.566406 138.875 84.640625 137.71875 84.484375 C 136.570312 84.335938 135.128906 83.863281 133.390625 83.0625 C 131.648438 82.269531 129.570312 81.128906 127.15625 79.640625 C 124.644531 78.085938 122.644531 76.71875 121.15625 75.53125 C 119.675781 74.34375 118.609375 73.265625 117.953125 72.296875 C 117.296875 71.335938 116.929688 70.457031 116.859375 69.65625 C 116.796875 68.851562 117.015625 68.046875 117.515625 67.234375 L 166.5625 -12.328125 C 171.34375 -20.078125 174.585938 -26.6875 176.296875 -32.15625 C 178.003906 -37.632812 178.753906 -42.796875 178.546875 -47.640625 C 178.347656 -52.492188 176.96875 -56.957031 174.40625 -61.03125 C 171.851562 -65.101562 168.160156 -68.628906 163.328125 -71.609375 C 157.085938 -75.453125 149.484375 -77.082031 140.515625 -76.5 C 131.546875 -75.914062 121.003906 -73.46875 108.890625 -69.15625 L 50.34375 25.8125 C 49.84375 26.625 49.21875 27.179688 48.46875 27.484375 C 47.726562 27.796875 46.78125 27.875 45.625 27.71875 C 44.476562 27.570312 43.035156 27.097656 41.296875 26.296875 C 39.554688 25.503906 37.429688 24.332031 34.921875 22.78125 C 32.503906 21.289062 30.550781 19.945312 29.0625 18.75 C 27.582031 17.5625 26.488281 16.46875 25.78125 15.46875 C 25.070312 14.476562 24.710938 13.597656 24.703125 12.828125 C 24.691406 12.066406 24.9375 11.28125 25.4375 10.46875 L 109.203125 -125.40625 C 109.703125 -126.207031 110.269531 -126.789062 110.90625 -127.15625 C 111.539062 -127.53125 112.453125 -127.664062 113.640625 -127.5625 C 114.828125 -127.46875 116.171875 -127.0625 117.671875 -126.34375 C 119.179688 -125.625 121.09375 -124.550781 123.40625 -123.125 C 125.625 -121.757812 127.414062 -120.550781 128.78125 -119.5 C 130.144531 -118.445312 131.085938 -117.441406 131.609375 -116.484375 C 132.140625 -115.535156 132.410156 -114.675781 132.421875 -113.90625 C 132.429688 -113.132812 132.1875 -112.347656 131.6875 -111.546875 L 120.609375 -93.578125 C 133.535156 -97.410156 145.023438 -98.972656 155.078125 -98.265625 C 165.128906 -97.566406 174.03125 -94.828125 181.78125 -90.046875 C 190.832031 -84.460938 197.507812 -78.222656 201.8125 -71.328125 C 206.113281 -64.441406 208.59375 -57.253906 209.25 -49.765625 C 209.90625 -42.273438 208.9375 -34.570312 206.34375 -26.65625 C 203.757812 -18.738281 199.488281 -9.953125 193.53125 -0.296875 Z M 142.4375 82.59375 "/></g></g></g><g fill="#741422" fill-opacity="1"><g transform="translate(2805.348122, 1270.640129)"><g><path d="M 224.15625 -9.984375 C 221.394531 -6.898438 218.984375 -5.046875 216.921875 -4.421875 C 214.867188 -3.804688 213.179688 -4.085938 211.859375 -5.265625 L 194.796875 -20.515625 C 195.046875 -14.585938 194.078125 -9.148438 191.890625 -4.203125 C 189.703125 0.734375 186.753906 5.273438 183.046875 9.421875 C 176.898438 16.296875 170.359375 21.390625 163.421875 24.703125 C 156.492188 28.023438 149.34375 29.679688 141.96875 29.671875 C 134.601562 29.671875 127.226562 28.117188 119.84375 25.015625 C 112.46875 21.921875 105.34375 17.300781 98.46875 11.15625 C 93.625 6.832031 89.585938 2.082031 86.359375 -3.09375 C 83.140625 -8.28125 81.207031 -12.90625 80.5625 -16.96875 C 77.550781 -16.8125 74.632812 -16.171875 71.8125 -15.046875 C 68.988281 -13.921875 66.394531 -12.035156 64.03125 -9.390625 C 61.28125 -6.304688 60.429688 -2.472656 61.484375 2.109375 C 62.535156 6.703125 65.363281 11.222656 69.96875 15.671875 L 99.859375 44.734375 C 105.617188 50.191406 110.3125 55.851562 113.9375 61.71875 C 117.570312 67.59375 120 73.488281 121.21875 79.40625 C 122.4375 85.320312 122.304688 91.144531 120.828125 96.875 C 119.347656 102.613281 116.285156 108.082031 111.640625 113.28125 C 106.753906 118.75 100.957031 122.925781 94.25 125.8125 C 87.550781 128.707031 80.164062 129.921875 72.09375 129.453125 C 64.03125 128.992188 55.375 126.570312 46.125 122.1875 C 36.882812 117.8125 27.28125 111.175781 17.3125 102.28125 C 7.707031 93.695312 0.257812 85.570312 -5.03125 77.90625 C -10.320312 70.238281 -13.867188 63.066406 -15.671875 56.390625 C -17.472656 49.722656 -17.585938 43.554688 -16.015625 37.890625 C -14.441406 32.234375 -11.609375 27.113281 -7.515625 22.53125 C -4.921875 19.625 -2.050781 17.117188 1.09375 15.015625 C 4.238281 12.910156 7.644531 11.269531 11.3125 10.09375 C 14.976562 8.925781 18.894531 8.179688 23.0625 7.859375 C 27.226562 7.546875 31.707031 7.546875 36.5 7.859375 C 34.132812 1.796875 33.414062 -3.832031 34.34375 -9.03125 C 35.269531 -14.226562 37.46875 -18.765625 40.9375 -22.640625 C 45.738281 -28.023438 51.132812 -31.847656 57.125 -34.109375 C 63.113281 -36.378906 69.234375 -37.734375 75.484375 -38.171875 C 75.660156 -43.878906 76.785156 -49.488281 78.859375 -55 C 80.941406 -60.519531 84.582031 -66.191406 89.78125 -72.015625 C 95.84375 -78.804688 102.421875 -83.863281 109.515625 -87.1875 C 116.617188 -90.507812 123.851562 -92.210938 131.21875 -92.296875 C 138.582031 -92.378906 145.988281 -90.875 153.4375 -87.78125 C 160.894531 -84.6875 167.976562 -80.144531 174.6875 -74.15625 C 178.300781 -70.925781 181.492188 -67.710938 184.265625 -64.515625 C 187.046875 -61.328125 189.488281 -58.15625 191.59375 -55 L 227.578125 -22.859375 C 229.078125 -21.523438 229.550781 -19.796875 229 -17.671875 C 228.445312 -15.546875 226.832031 -12.984375 224.15625 -9.984375 Z M 162.03125 -9.125 C 169.269531 -17.226562 172.691406 -25.539062 172.296875 -34.0625 C 171.910156 -42.59375 167.617188 -50.519531 159.421875 -57.84375 C 155.179688 -61.625 150.863281 -64.203125 146.46875 -65.578125 C 142.070312 -66.960938 137.738281 -67.347656 133.46875 -66.734375 C 129.195312 -66.117188 125.113281 -64.65625 121.21875 -62.34375 C 117.332031 -60.03125 113.8125 -57.109375 110.65625 -53.578125 C 103.644531 -45.734375 100.359375 -37.570312 100.796875 -29.09375 C 101.234375 -20.625 105.460938 -12.804688 113.484375 -5.640625 C 117.804688 -1.773438 122.164062 0.890625 126.5625 2.359375 C 130.96875 3.828125 135.285156 4.273438 139.515625 3.703125 C 143.742188 3.128906 147.785156 1.710938 151.640625 -0.546875 C 155.492188 -2.816406 158.957031 -5.675781 162.03125 -9.125 Z M 88.75 94.984375 C 93.3125 89.867188 94.738281 84.050781 93.03125 77.53125 C 91.332031 71.019531 86.988281 64.484375 80 57.921875 L 50.140625 29.34375 C 45.335938 29.007812 41.144531 29.03125 37.5625 29.40625 C 33.988281 29.78125 30.863281 30.394531 28.1875 31.25 C 25.519531 32.113281 23.203125 33.25 21.234375 34.65625 C 19.265625 36.070312 17.453125 37.707031 15.796875 39.5625 C 10.679688 45.289062 9.710938 52.226562 12.890625 60.375 C 16.066406 68.53125 22.859375 77.253906 33.265625 86.546875 C 39.878906 92.460938 45.984375 96.769531 51.578125 99.46875 C 57.171875 102.164062 62.28125 103.675781 66.90625 104 C 71.53125 104.320312 75.65625 103.644531 79.28125 101.96875 C 82.914062 100.300781 86.070312 97.972656 88.75 94.984375 Z M 88.75 94.984375 "/></g></g></g><g fill="#741422" fill-opacity="1"><g transform="translate(2922.949698, 1372.706112)"><g><path d="M 104.59375 126.21875 C 103.851562 126.800781 103.101562 127.128906 102.34375 127.203125 C 101.582031 127.285156 100.6875 127.054688 99.65625 126.515625 C 98.625 125.972656 97.484375 125.097656 96.234375 123.890625 C 94.984375 122.679688 93.59375 121.101562 92.0625 119.15625 C 90.382812 117.007812 89.109375 115.1875 88.234375 113.6875 C 87.367188 112.195312 86.8125 110.910156 86.5625 109.828125 C 86.320312 108.742188 86.347656 107.863281 86.640625 107.1875 C 86.929688 106.507812 87.445312 105.878906 88.1875 105.296875 L 104.8125 92.265625 C 91.28125 91.304688 79.960938 88.757812 70.859375 84.625 C 61.753906 80.488281 54.394531 74.835938 48.78125 67.671875 C 42.207031 59.296875 38.070312 51.148438 36.375 43.234375 C 34.6875 35.328125 34.851562 27.726562 36.875 20.4375 C 38.90625 13.144531 42.503906 6.234375 47.671875 -0.296875 C 52.835938 -6.828125 59.976562 -13.664062 69.09375 -20.8125 L 145.3125 -80.578125 C 146.050781 -81.160156 146.800781 -81.488281 147.5625 -81.5625 C 148.320312 -81.644531 149.273438 -81.382812 150.421875 -80.78125 C 151.578125 -80.175781 152.8125 -79.179688 154.125 -77.796875 C 155.4375 -76.421875 156.96875 -74.617188 158.71875 -72.390625 C 160.46875 -70.148438 161.851562 -68.226562 162.875 -66.625 C 163.90625 -65.03125 164.554688 -63.628906 164.828125 -62.421875 C 165.097656 -61.210938 165.125 -60.21875 164.90625 -59.4375 C 164.6875 -58.664062 164.207031 -57.988281 163.46875 -57.40625 L 90.328125 -0.0625 C 82.972656 5.707031 77.503906 10.859375 73.921875 15.390625 C 70.347656 19.921875 67.859375 24.5 66.453125 29.125 C 65.054688 33.757812 64.8125 38.425781 65.71875 43.125 C 66.625 47.832031 68.828125 52.421875 72.328125 56.890625 C 76.847656 62.660156 83.398438 66.800781 91.984375 69.3125 C 100.566406 71.820312 111.328125 73.1875 124.265625 73.40625 L 212.0625 4.5625 C 212.800781 3.976562 213.550781 3.648438 214.3125 3.578125 C 215.082031 3.503906 216.039062 3.765625 217.1875 4.359375 C 218.34375 4.960938 219.554688 5.929688 220.828125 7.265625 C 222.097656 8.597656 223.644531 10.425781 225.46875 12.75 C 227.226562 14.988281 228.617188 16.90625 229.640625 18.5 C 230.671875 20.09375 231.300781 21.472656 231.53125 22.640625 C 231.769531 23.804688 231.796875 24.796875 231.609375 25.609375 C 231.421875 26.429688 230.957031 27.132812 230.21875 27.71875 Z M 104.59375 126.21875 "/></g></g></g><g fill="#741422" fill-opacity="1"><g transform="translate(3031.618371, 1510.264686)"><g><path d="M 72.703125 128.28125 C 71.453125 128.9375 70.289062 129.007812 69.21875 128.5 C 68.15625 128 67.078125 127.097656 65.984375 125.796875 C 64.898438 124.503906 63.613281 122.453125 62.125 119.640625 C 60.6875 116.921875 59.691406 114.664062 59.140625 112.875 C 58.597656 111.09375 58.445312 109.664062 58.6875 108.59375 C 58.925781 107.53125 59.671875 106.671875 60.921875 106.015625 L 75.046875 98.546875 C 65.191406 95.859375 56.425781 91.691406 48.75 86.046875 C 41.082031 80.410156 35.007812 73.363281 30.53125 64.90625 C 26.601562 57.488281 24.015625 50.265625 22.765625 43.234375 C 21.523438 36.203125 21.613281 29.597656 23.03125 23.421875 C 24.445312 17.253906 27.195312 11.582031 31.28125 6.40625 C 35.363281 1.238281 40.804688 -3.140625 47.609375 -6.734375 C 55.546875 -10.941406 63.300781 -12.972656 70.875 -12.828125 C 78.445312 -12.691406 85.769531 -10.613281 92.84375 -6.59375 C 99.914062 -2.582031 106.738281 3.296875 113.3125 11.046875 C 119.882812 18.804688 126.078125 28.175781 131.890625 39.15625 L 142.171875 58.578125 L 153.15625 52.78125 C 158.59375 49.90625 163.09375 46.785156 166.65625 43.421875 C 170.226562 40.054688 172.722656 36.359375 174.140625 32.328125 C 175.554688 28.304688 175.890625 23.882812 175.140625 19.0625 C 174.398438 14.25 172.453125 8.863281 169.296875 2.90625 C 165.921875 -3.46875 162.132812 -8.789062 157.9375 -13.0625 C 153.738281 -17.332031 149.710938 -20.882812 145.859375 -23.71875 C 142.015625 -26.5625 138.65625 -28.863281 135.78125 -30.625 C 132.914062 -32.382812 131.148438 -33.894531 130.484375 -35.15625 C 130.046875 -35.976562 129.867188 -36.816406 129.953125 -37.671875 C 130.046875 -38.523438 130.382812 -39.410156 130.96875 -40.328125 C 131.550781 -41.242188 132.441406 -42.148438 133.640625 -43.046875 C 134.835938 -43.941406 136.21875 -44.800781 137.78125 -45.625 C 140.394531 -47.007812 142.554688 -47.921875 144.265625 -48.359375 C 145.972656 -48.804688 147.878906 -48.679688 149.984375 -47.984375 C 152.085938 -47.285156 154.96875 -45.695312 158.625 -43.21875 C 162.28125 -40.738281 166.054688 -37.65625 169.953125 -33.96875 C 173.847656 -30.28125 177.703125 -26.03125 181.515625 -21.21875 C 185.335938 -16.414062 188.6875 -11.300781 191.5625 -5.875 C 196.925781 4.257812 200.335938 13.488281 201.796875 21.8125 C 203.253906 30.144531 202.921875 37.675781 200.796875 44.40625 C 198.679688 51.144531 194.859375 57.25 189.328125 62.71875 C 183.796875 68.195312 176.644531 73.257812 167.875 77.90625 Z M 123.53125 68.453125 L 111.828125 46.359375 C 108.066406 39.253906 104.203125 33.40625 100.234375 28.8125 C 96.273438 24.226562 92.207031 20.832031 88.03125 18.625 C 83.851562 16.425781 79.6875 15.390625 75.53125 15.515625 C 71.382812 15.640625 67.164062 16.835938 62.875 19.109375 C 55.5625 22.972656 50.96875 28.375 49.09375 35.3125 C 47.226562 42.257812 48.503906 49.914062 52.921875 58.28125 C 56.523438 65.070312 61.582031 70.453125 68.09375 74.421875 C 74.613281 78.398438 83.113281 81.691406 93.59375 84.296875 Z M 123.53125 68.453125 "/></g></g></g><g fill="#741422" fill-opacity="1"><g transform="translate(3105.835883, 1655.123964)"><g/></g></g><g fill="#741422" fill-opacity="1"><g transform="translate(3134.161906, 1720.86225)"><g><path d="M 99.109375 134.046875 C 88.648438 136.609375 78.875 136.960938 69.78125 135.109375 C 60.695312 133.253906 52.472656 129.601562 45.109375 124.15625 C 37.742188 118.71875 31.492188 111.726562 26.359375 103.1875 C 21.222656 94.65625 17.347656 85.046875 14.734375 74.359375 C 12.898438 66.890625 11.835938 59.8125 11.546875 53.125 C 11.253906 46.445312 11.414062 40.390625 12.03125 34.953125 C 12.644531 29.515625 13.515625 24.859375 14.640625 20.984375 C 15.765625 17.117188 16.851562 14.351562 17.90625 12.6875 C 18.957031 11.03125 20.46875 9.625 22.4375 8.46875 C 24.414062 7.320312 27.1875 6.3125 30.75 5.4375 C 33.257812 4.820312 35.375 4.425781 37.09375 4.25 C 38.8125 4.070312 40.242188 4.082031 41.390625 4.28125 C 42.546875 4.488281 43.40625 4.882812 43.96875 5.46875 C 44.539062 6.0625 44.941406 6.816406 45.171875 7.734375 C 45.566406 9.347656 45.144531 11.859375 43.90625 15.265625 C 42.675781 18.671875 41.472656 22.953125 40.296875 28.109375 C 39.128906 33.265625 38.332031 39.332031 37.90625 46.3125 C 37.488281 53.289062 38.316406 61.03125 40.390625 69.53125 C 41.960938 75.957031 44.265625 81.632812 47.296875 86.5625 C 50.335938 91.488281 53.910156 95.488281 58.015625 98.5625 C 62.117188 101.632812 66.71875 103.640625 71.8125 104.578125 C 76.914062 105.515625 82.394531 105.265625 88.25 103.828125 C 94.5625 102.285156 99.601562 99.53125 103.375 95.5625 C 107.15625 91.59375 110.160156 86.835938 112.390625 81.296875 C 114.617188 75.765625 116.398438 69.640625 117.734375 62.921875 C 119.078125 56.203125 120.441406 49.320312 121.828125 42.28125 C 123.210938 35.25 124.953125 28.3125 127.046875 21.46875 C 129.148438 14.632812 132.035156 8.269531 135.703125 2.375 C 139.378906 -3.507812 144.097656 -8.710938 149.859375 -13.234375 C 155.628906 -17.753906 163.054688 -21.128906 172.140625 -23.359375 C 181.429688 -25.628906 190.140625 -25.960938 198.265625 -24.359375 C 206.390625 -22.753906 213.660156 -19.539062 220.078125 -14.71875 C 226.492188 -9.894531 232.007812 -3.640625 236.625 4.046875 C 241.25 11.742188 244.742188 20.410156 247.109375 30.046875 C 248.316406 34.984375 249.101562 40.054688 249.46875 45.265625 C 249.832031 50.484375 249.835938 55.476562 249.484375 60.25 C 249.128906 65.019531 248.484375 69.34375 247.546875 73.21875 C 246.609375 77.101562 245.726562 79.722656 244.90625 81.078125 C 244.082031 82.441406 243.394531 83.375 242.84375 83.875 C 242.300781 84.375 241.570312 84.859375 240.65625 85.328125 C 239.738281 85.796875 238.601562 86.253906 237.25 86.703125 C 235.894531 87.160156 234.128906 87.65625 231.953125 88.1875 C 229.890625 88.695312 228.03125 89.0625 226.375 89.28125 C 224.726562 89.5 223.316406 89.566406 222.140625 89.484375 C 220.960938 89.410156 220.035156 89.125 219.359375 88.625 C 218.691406 88.125 218.257812 87.46875 218.0625 86.65625 C 217.75 85.394531 218.066406 83.21875 219.015625 80.125 C 219.960938 77.03125 220.960938 73.285156 222.015625 68.890625 C 223.078125 64.492188 223.785156 59.414062 224.140625 53.65625 C 224.492188 47.90625 223.859375 41.703125 222.234375 35.046875 C 220.710938 28.847656 218.554688 23.65625 215.765625 19.46875 C 212.972656 15.289062 209.832031 12.046875 206.34375 9.734375 C 202.863281 7.421875 199.046875 5.976562 194.890625 5.40625 C 190.734375 4.84375 186.53125 5.082031 182.28125 6.125 C 176.082031 7.644531 171.085938 10.390625 167.296875 14.359375 C 163.515625 18.328125 160.488281 23.113281 158.21875 28.71875 C 155.945312 34.332031 154.117188 40.535156 152.734375 47.328125 C 151.359375 54.128906 149.976562 61.039062 148.59375 68.0625 C 147.21875 75.09375 145.519531 82.078125 143.5 89.015625 C 141.488281 95.960938 138.679688 102.398438 135.078125 108.328125 C 131.484375 114.265625 126.800781 119.492188 121.03125 124.015625 C 115.257812 128.535156 107.953125 131.878906 99.109375 134.046875 Z M 99.109375 134.046875 "/></g></g></g><g fill="#741422" fill-opacity="1"><g transform="translate(3170.188904, 1870.982047)"><g><path d="M 26.96875 108 C 23.5625 108.332031 20.832031 108.363281 18.78125 108.09375 C 16.726562 107.820312 15.179688 107.265625 14.140625 106.421875 C 13.109375 105.585938 12.085938 104.265625 11.078125 102.453125 C 10.066406 100.640625 9.175781 98.554688 8.40625 96.203125 C 7.644531 93.847656 6.953125 91.332031 6.328125 88.65625 C 5.703125 85.988281 5.257812 83.304688 5 80.609375 C 4.175781 72.359375 4.554688 65.1875 6.140625 59.09375 C 7.734375 53 10.550781 47.847656 14.59375 43.640625 C 18.632812 39.441406 23.953125 36.148438 30.546875 33.765625 C 37.140625 31.378906 45.023438 29.726562 54.203125 28.8125 L 147.03125 19.578125 L 144.8125 -2.65625 C 144.632812 -4.414062 145.4375 -5.914062 147.21875 -7.15625 C 149 -8.40625 152.007812 -9.242188 156.25 -9.671875 C 158.476562 -9.890625 160.367188 -9.925781 161.921875 -9.78125 C 163.484375 -9.644531 164.785156 -9.390625 165.828125 -9.015625 C 166.878906 -8.648438 167.648438 -8.101562 168.140625 -7.375 C 168.628906 -6.644531 168.921875 -5.8125 169.015625 -4.875 L 171.21875 17.171875 L 208.984375 13.40625 C 209.796875 13.320312 210.578125 13.453125 211.328125 13.796875 C 212.085938 14.148438 212.785156 14.859375 213.421875 15.921875 C 214.054688 16.992188 214.582031 18.457031 215 20.3125 C 215.425781 22.164062 215.78125 24.503906 216.0625 27.328125 C 216.351562 30.265625 216.472656 32.6875 216.421875 34.59375 C 216.378906 36.5 216.144531 38.007812 215.71875 39.125 C 215.300781 40.238281 214.757812 41.0625 214.09375 41.59375 C 213.425781 42.132812 212.6875 42.445312 211.875 42.53125 L 174.109375 46.296875 L 178.171875 87.0625 C 178.265625 88.007812 178.140625 88.851562 177.796875 89.59375 C 177.453125 90.34375 176.804688 91.03125 175.859375 91.65625 C 174.910156 92.289062 173.679688 92.800781 172.171875 93.1875 C 170.671875 93.570312 168.804688 93.875 166.578125 94.09375 C 162.335938 94.519531 159.222656 94.296875 157.234375 93.421875 C 155.242188 92.554688 154.160156 91.238281 153.984375 89.46875 L 149.921875 48.703125 L 61.34375 57.515625 C 50.394531 58.609375 42.285156 61.050781 37.015625 64.84375 C 31.753906 68.644531 29.539062 74.722656 30.375 83.078125 C 30.644531 85.785156 31.148438 88.164062 31.890625 90.21875 C 32.628906 92.28125 33.375 94.101562 34.125 95.6875 C 34.875 97.28125 35.566406 98.640625 36.203125 99.765625 C 36.847656 100.890625 37.21875 101.925781 37.3125 102.875 C 37.375 103.457031 37.285156 104.03125 37.046875 104.59375 C 36.816406 105.15625 36.304688 105.617188 35.515625 105.984375 C 34.722656 106.359375 33.628906 106.734375 32.234375 107.109375 C 30.835938 107.484375 29.082031 107.78125 26.96875 108 Z M 26.96875 108 "/></g></g></g><g fill="#741422" fill-opacity="1"><g transform="translate(3184.572826, 1978.575254)"><g><path d="M -4.296875 163.875 C -5.242188 163.820312 -6.03125 163.570312 -6.65625 163.125 C -7.289062 162.6875 -7.816406 161.921875 -8.234375 160.828125 C -8.648438 159.742188 -8.929688 158.335938 -9.078125 156.609375 C -9.222656 154.878906 -9.226562 152.773438 -9.09375 150.296875 C -8.945312 147.585938 -8.710938 145.382812 -8.390625 143.6875 C -8.066406 141.988281 -7.640625 140.648438 -7.109375 139.671875 C -6.578125 138.691406 -5.976562 138.039062 -5.3125 137.71875 C -4.644531 137.394531 -3.835938 137.257812 -2.890625 137.3125 L 18.1875 138.4375 C 8.632812 128.820312 1.789062 119.457031 -2.34375 110.34375 C -6.476562 101.238281 -8.304688 92.140625 -7.828125 83.046875 C -7.253906 72.421875 -5.003906 63.570312 -1.078125 56.5 C 2.847656 49.4375 7.972656 43.820312 14.296875 39.65625 C 20.628906 35.5 27.890625 32.660156 36.078125 31.140625 C 44.265625 29.628906 54.144531 29.179688 65.71875 29.796875 L 162.421875 34.96875 C 163.367188 35.019531 164.15625 35.265625 164.78125 35.703125 C 165.40625 36.148438 165.953125 36.976562 166.421875 38.1875 C 166.890625 39.394531 167.160156 40.953125 167.234375 42.859375 C 167.316406 44.765625 167.28125 47.128906 167.125 49.953125 C 166.976562 52.796875 166.765625 55.15625 166.484375 57.03125 C 166.203125 58.90625 165.765625 60.390625 165.171875 61.484375 C 164.585938 62.578125 163.957031 63.34375 163.28125 63.78125 C 162.613281 64.21875 161.804688 64.410156 160.859375 64.359375 L 68.046875 59.40625 C 58.722656 58.90625 51.21875 59.179688 45.53125 60.234375 C 39.851562 61.296875 34.957031 63.109375 30.84375 65.671875 C 26.738281 68.242188 23.484375 71.59375 21.078125 75.71875 C 18.671875 79.851562 17.316406 84.753906 17.015625 90.421875 C 16.617188 97.742188 18.828125 105.175781 23.640625 112.71875 C 28.453125 120.257812 35.65625 128.367188 45.25 137.046875 L 156.65625 143 C 157.601562 143.050781 158.390625 143.300781 159.015625 143.75 C 159.640625 144.207031 160.1875 145.035156 160.65625 146.234375 C 161.125 147.441406 161.394531 148.960938 161.46875 150.796875 C 161.550781 152.640625 161.515625 155.035156 161.359375 157.984375 C 161.203125 160.828125 160.984375 163.1875 160.703125 165.0625 C 160.429688 166.9375 160 168.390625 159.40625 169.421875 C 158.820312 170.460938 158.191406 171.226562 157.515625 171.71875 C 156.847656 172.21875 156.039062 172.441406 155.09375 172.390625 Z M -4.296875 163.875 "/></g></g></g><g fill="#741422" fill-opacity="1"><g transform="translate(3176.759305, 2153.11684)"><g><path d="M -34.59375 160.234375 C -35.519531 160.015625 -36.28125 159.617188 -36.875 159.046875 C -37.46875 158.484375 -37.84375 157.664062 -38 156.59375 C -38.164062 155.519531 -38.164062 154.148438 -38 152.484375 C -37.832031 150.816406 -37.46875 148.832031 -36.90625 146.53125 C -36.320312 144.125 -35.71875 142.144531 -35.09375 140.59375 C -34.46875 139.039062 -33.828125 137.796875 -33.171875 136.859375 C -32.523438 135.929688 -31.800781 135.320312 -31 135.03125 C -30.195312 134.738281 -29.332031 134.703125 -28.40625 134.921875 L -7.90625 139.9375 C -14.757812 129.625 -19.582031 119.46875 -22.375 109.46875 C -25.175781 99.46875 -25.296875 89.242188 -22.734375 78.796875 C -19.953125 67.421875 -15.367188 58.253906 -8.984375 51.296875 C -2.597656 44.335938 4.960938 39.28125 13.703125 36.125 C 22.453125 32.96875 32.1875 31.484375 42.90625 31.671875 C 53.632812 31.859375 64.628906 33.332031 75.890625 36.09375 C 89.222656 39.34375 100.90625 43.710938 110.9375 49.203125 C 120.976562 54.703125 129.097656 61.191406 135.296875 68.671875 C 141.503906 76.160156 145.628906 84.566406 147.671875 93.890625 C 149.710938 103.222656 149.398438 113.34375 146.734375 124.25 C 144.515625 133.320312 140.5 141.132812 134.6875 147.6875 C 128.882812 154.238281 121.242188 160.25 111.765625 165.71875 L 201.859375 187.75 C 202.671875 187.945312 203.398438 188.335938 204.046875 188.921875 C 204.691406 189.503906 205.078125 190.414062 205.203125 191.65625 C 205.328125 192.90625 205.316406 194.453125 205.171875 196.296875 C 205.023438 198.148438 204.613281 200.457031 203.9375 203.21875 C 203.226562 206.09375 202.503906 208.410156 201.765625 210.171875 C 201.035156 211.941406 200.34375 213.289062 199.6875 214.21875 C 199.03125 215.15625 198.265625 215.789062 197.390625 216.125 C 196.523438 216.46875 195.6875 216.539062 194.875 216.34375 Z M 81.4375 158.3125 C 92.84375 152.945312 101.921875 147.285156 108.671875 141.328125 C 115.429688 135.367188 119.769531 128.484375 121.6875 120.671875 C 123.445312 113.441406 123.222656 106.875 121.015625 100.96875 C 118.816406 95.070312 115.285156 89.859375 110.421875 85.328125 C 105.554688 80.796875 99.738281 76.941406 92.96875 73.765625 C 86.207031 70.585938 79.144531 68.097656 71.78125 66.296875 C 63.976562 64.390625 56.195312 63.125 48.4375 62.5 C 40.6875 61.882812 33.546875 62.359375 27.015625 63.921875 C 20.484375 65.492188 14.859375 68.320312 10.140625 72.40625 C 5.429688 76.5 2.164062 82.273438 0.34375 89.734375 C -0.582031 93.523438 -0.957031 97.296875 -0.78125 101.046875 C -0.601562 104.796875 0.238281 108.804688 1.75 113.078125 C 3.269531 117.347656 5.457031 121.960938 8.3125 126.921875 C 11.175781 131.878906 14.878906 137.285156 19.421875 143.140625 Z M 81.4375 158.3125 "/></g></g></g><g fill="#741422" fill-opacity="1"><g transform="translate(3131.586184, 2326.127468)"><g><path d="M -16.46875 54.140625 C -17.34375 53.785156 -17.992188 53.269531 -18.421875 52.59375 C -18.859375 51.914062 -19.101562 50.992188 -19.15625 49.828125 C -19.207031 48.671875 -18.992188 47.164062 -18.515625 45.3125 C -18.046875 43.457031 -17.273438 41.160156 -16.203125 38.421875 C -15.160156 35.773438 -14.1875 33.613281 -13.28125 31.9375 C -12.375 30.269531 -11.492188 29 -10.640625 28.125 C -9.796875 27.25 -8.992188 26.734375 -8.234375 26.578125 C -7.472656 26.429688 -6.65625 26.535156 -5.78125 26.890625 L 142.828125 85.15625 C 143.597656 85.445312 144.234375 85.914062 144.734375 86.5625 C 145.242188 87.207031 145.515625 88.140625 145.546875 89.359375 C 145.578125 90.578125 145.359375 92.109375 144.890625 93.953125 C 144.429688 95.804688 143.679688 98.054688 142.640625 100.703125 C 141.566406 103.441406 140.570312 105.648438 139.65625 107.328125 C 138.738281 109.003906 137.863281 110.25 137.03125 111.0625 C 136.207031 111.882812 135.378906 112.382812 134.546875 112.5625 C 133.710938 112.75 132.910156 112.695312 132.140625 112.40625 Z M 181.109375 135.203125 C 174.734375 132.703125 170.863281 129.785156 169.5 126.453125 C 168.132812 123.128906 168.726562 118.222656 171.28125 111.734375 C 173.78125 105.347656 176.617188 101.414062 179.796875 99.9375 C 182.984375 98.457031 187.71875 98.945312 194 101.40625 C 200.375 103.90625 204.242188 106.816406 205.609375 110.140625 C 206.972656 113.460938 206.378906 118.375 203.828125 124.875 C 201.328125 131.257812 198.484375 135.191406 195.296875 136.671875 C 192.117188 138.148438 187.390625 137.660156 181.109375 135.203125 Z M 181.109375 135.203125 "/></g></g></g><g fill="#741422" fill-opacity="1"><g transform="translate(3109.506112, 2394.548656)"><g><path d="M -10.25 195.25 C -21.601562 188.925781 -31.222656 181.609375 -39.109375 173.296875 C -46.992188 164.984375 -52.742188 155.925781 -56.359375 146.125 C -59.972656 136.332031 -61.234375 125.890625 -60.140625 114.796875 C -59.046875 103.703125 -55.222656 92.269531 -48.671875 80.5 C -42.285156 69.03125 -35.007812 59.984375 -26.84375 53.359375 C -18.6875 46.734375 -9.773438 42.390625 -0.109375 40.328125 C 9.554688 38.273438 19.8125 38.441406 30.65625 40.828125 C 41.507812 43.210938 52.828125 47.679688 64.609375 54.234375 C 75.972656 60.566406 85.613281 67.863281 93.53125 76.125 C 101.445312 84.382812 107.210938 93.410156 110.828125 103.203125 C 114.453125 113.003906 115.703125 123.40625 114.578125 134.40625 C 113.453125 145.414062 109.582031 156.863281 102.96875 168.75 C 96.582031 180.21875 89.3125 189.265625 81.15625 195.890625 C 73 202.515625 64.082031 206.851562 54.40625 208.90625 C 44.738281 210.96875 34.460938 210.832031 23.578125 208.5 C 12.703125 206.164062 1.425781 201.75 -10.25 195.25 Z M 3.0625 167.34375 C 10.601562 171.539062 18.117188 174.8125 25.609375 177.15625 C 33.109375 179.5 40.28125 180.472656 47.125 180.078125 C 53.976562 179.691406 60.398438 177.582031 66.390625 173.75 C 72.378906 169.914062 77.644531 163.914062 82.1875 155.75 C 86.382812 148.21875 88.644531 140.988281 88.96875 134.0625 C 89.300781 127.144531 87.992188 120.5625 85.046875 114.3125 C 82.097656 108.070312 77.738281 102.226562 71.96875 96.78125 C 66.207031 91.34375 59.347656 86.410156 51.390625 81.984375 C 43.742188 77.722656 36.171875 74.421875 28.671875 72.078125 C 21.179688 69.742188 14.023438 68.804688 7.203125 69.265625 C 0.378906 69.734375 -6.023438 71.882812 -12.015625 75.71875 C -18.003906 79.550781 -23.269531 85.550781 -27.8125 93.71875 C -31.945312 101.15625 -34.195312 108.359375 -34.5625 115.328125 C -34.925781 122.296875 -33.65625 128.890625 -30.75 135.109375 C -27.851562 141.328125 -23.503906 147.128906 -17.703125 152.515625 C -11.910156 157.910156 -4.988281 162.851562 3.0625 167.34375 Z M 3.0625 167.34375 "/></g></g></g></g></g></svg>